<svg width="33" height="34" viewBox="0 0 33 34" fill="none" xmlns="http://www.w3.org/2000/svg">
<path d="M16.6633 26.2763C15.1622 24.4451 11.4604 20.7262 9.20234 18.7455C7.38416 17.1506 6.77701 16.8521 7.77267 18.1308C9.17458 19.9313 14.3061 25.0472 16.2907 26.6489C17.5609 27.674 17.7525 27.605 16.6633 26.2763Z" stroke="#86D7FF" stroke-width="5"/>
<path d="M18.5 20.5L14 16L24.5 3.5L31.5 2V9.5L18.5 20.5Z" stroke="#86D7FF" stroke-width="3"/>
<path d="M1.90162 31.5C1.00155 30.4714 0.667784 29.1531 1.4016 28C2.10484 26.8949 5 26.5 5 26.5L7.40161 24L9.40161 26L7 28.5C7 28.5 6.68753 30.8014 5.90162 31.5C4.73409 32.5378 2.93027 32.6756 1.90162 31.5Z" stroke="#86D7FF" stroke-width="2"/>
</svg>
