<svg width="30" height="28" viewBox="0 0 30 28" fill="none" xmlns="http://www.w3.org/2000/svg">
<path d="M15.849 12.7383C12.2374 11.673 10.2334 8.24832 11.2747 4.92131C12.7564 0.1878 24.8399 1.56444 24.9975 6.48471C25.1279 10.5533 20.0979 13.9915 15.849 12.7383Z" stroke="#A2FF86" stroke-width="3"/>
<path d="M5.11721 24.7145C2.79547 23.5524 1.50716 19.8164 2.17662 16.1869C3.12909 11.0231 10.8971 12.5248 10.9984 17.8924C11.0822 22.3308 7.84868 26.0817 5.11721 24.7145Z" stroke="#A2FF86" stroke-width="3"/>
<path d="M19.5026 25.7859C16.149 24.9143 14.2881 22.1123 15.2551 19.3902C16.6309 15.5173 27.8513 16.6436 27.9977 20.6693C28.1187 23.9981 23.4481 26.8112 19.5026 25.7859Z" stroke="#A2FF86" stroke-width="3"/>
</svg>
